<mxfile host="app.diagrams.net" modified="2023-10-13T09:54:03.917Z" agent="Mozilla/5.0 (Windows NT 10.0; Win64; x64) AppleWebKit/537.36 (KHTML, like Gecko) Chrome/117.0.0.0 Safari/537.36" version="22.0.4" etag="_Bi1CNy9OVuZ7e3RHgfq" type="github">
  <diagram name="Страница — 1" id="BI-Nr8Mpe1zV-ptJS8Cs">
    <mxGraphModel>
      <root>
        <mxCell id="0" />
        <mxCell id="1" parent="0" />
      </root>
    </mxGraphModel>
  </diagram>
</mxfile>
